<mxfile host="app.diagrams.net" modified="2023-08-08T03:26:59.795Z" agent="Mozilla/5.0 (Windows NT 10.0; Win64; x64) AppleWebKit/537.36 (KHTML, like Gecko) Chrome/115.0.0.0 Safari/537.36" version="21.6.6" etag="3nQy1ORK3nio9AaP_U2V" type="github">
  <diagram name="第 1 页" id="iZNBAuuNeE-55vqk6a2T">
    <mxGraphModel>
      <root>
        <mxCell id="0" />
        <mxCell id="1" parent="0" />
      </root>
    </mxGraphModel>
  </diagram>
</mxfile>
